<svg width="822" height="822" viewBox="0 0 822 822" fill="none" xmlns="http://www.w3.org/2000/svg">
<path d="M411.006 0C184.01 0 0 184.01 0 410.994C0 637.978 184.01 822 411.006 822C638.002 822 822 637.99 822 410.994C822 183.998 637.99 0 411.006 0ZM534.173 136.115C565.142 127.37 592.297 142.448 596.393 144.814C588.377 152.288 569.815 167.296 540.2 172.545C520.32 176.053 503.087 173.828 492.341 171.592C494.177 167.484 505.088 144.331 534.173 136.115ZM547.451 307.436C543.166 307.189 536.222 306.695 528.088 309.661C518.73 313.063 513.081 319.148 510.632 321.714C500.215 332.684 482.995 348.516 459.524 369.326C467.799 370.08 476.262 370.727 484.925 371.233C489.092 371.48 493.224 371.692 497.296 371.869C501.11 375.541 506.972 380.379 515.082 384.404C523.909 388.795 531.972 390.513 537.457 391.231C538.011 397.858 538.034 406.557 536.104 416.467C534.986 422.2 533.432 427.226 531.819 431.463C536.021 430.039 546.662 425.778 554.431 414.796C566.566 397.658 561.634 378.331 560.857 375.518C564.165 373.964 569.791 370.786 574.911 364.806C579.655 359.262 581.915 353.683 582.998 350.281C588.507 366.607 595.028 377.86 600.148 385.275C601.925 387.865 602.408 388.348 603.95 390.76C613.107 405.05 615.461 418.28 616.568 423.365C618.4 431.827 622.346 443.406 631.491 457.865C633.642 461.266 631.329 465.831 627.305 465.808C610.611 465.714 597.886 464.471 588.483 463.126C582.48 462.267 573.793 460.784 565.625 465.504C559.574 469 556.243 474.508 554.431 478.357C558.185 477.333 563.059 476.462 568.72 476.698C583.928 477.31 594.604 485.349 598.712 488.833C597.429 491.07 595.345 495.389 594.91 501.216C594.498 506.654 595.71 510.974 596.569 513.351C591.579 514.411 586.117 515.929 580.385 518.118C562.753 524.839 550.134 534.962 542.06 542.872C546.827 541.024 553.018 539.129 560.387 538.117C570.686 536.692 579.455 537.505 585.623 538.587C590.461 539.152 594.098 542.166 594.663 545.732C594.992 547.745 594.262 549.487 593.709 550.488C589.907 552.547 584.893 555.773 579.902 560.728C573.699 566.908 570.062 573.252 568.002 577.631C569.368 577.325 576.924 575.771 583.716 580.491C591.673 586.011 591.755 596.393 591.814 600.724C591.932 610.624 587.447 617.78 585.54 620.723C582.892 624.819 575.747 633.765 558.244 639.45C527.7 649.361 478.098 645.147 423.659 621.676C400 611.471 387.406 607.493 377.318 597.229C348.669 568.085 350.952 524.828 352.329 510.503C349.399 509.526 344.902 508.572 340.418 510.256C335.321 512.186 333.908 516.188 330.66 518.825C322.362 525.593 306.883 519.59 301.857 517.636C295.666 515.235 286.591 510.491 263.532 482.406C249.902 465.81 243.086 457.512 240.674 450.743C239.237 446.718 229.562 418.257 246.394 394.798C259.848 376.035 286.92 363.747 311.85 373.611C322.938 378.001 332.049 386.146 338.111 396.457C340.818 401.048 342.925 406.074 344.325 411.383C350.54 412.972 357.968 414.266 366.372 414.561C385.346 415.232 400.401 410.512 409.217 406.945C406.015 403.802 400.765 397.858 397.317 388.854C394.409 381.25 393.939 374.517 393.986 370.28C399.4 369.467 408.452 367.313 417.315 360.757C435.877 347.033 438.349 325.304 438.737 321.243C444.364 317.853 451.567 312.462 457.782 304.105C471.142 286.143 471.577 265.78 470.589 254.739C470.318 251.655 469.93 249.301 469.682 247.924C471.507 248.336 474.037 248.831 477.121 249.207C485.89 250.29 499.144 250.372 513.493 244.593C525.451 239.767 533.585 232.705 538.246 227.926C540.53 228.832 545.203 230.445 551.335 230.81C554.643 230.998 558.374 230.833 562.376 229.986C565.86 229.256 568.956 228.138 571.663 226.831C572.557 233.246 573.664 239.92 575.065 246.806C579.773 270.018 586.529 290.122 593.474 306.801C572.71 308.249 557.844 308.025 547.451 307.436ZM563.8 342.183C559.327 347.398 554.866 350.764 551.735 352.824C547.898 355.331 536.598 362.523 521.426 361.864C517.636 361.699 513.764 359.248 511.991 356.233C509.361 351.759 510.013 349.213 512.238 347.316C516.133 343.996 521.615 343.355 526.727 343.102C540.022 342.445 556.118 342.955 563.8 342.183ZM349.281 291.84C327.07 289.828 311.485 279.905 304.647 274.926C309.037 270.995 326.587 256.211 353.271 255.905C383.427 255.552 402.766 273.961 406.357 277.516C399.694 281.835 378.342 294.477 349.281 291.84ZM432.052 200.041C438.208 196.393 458.536 185.434 485.102 190.413C508.761 194.827 523.768 209.328 529.065 214.978C517.53 217.709 498.826 220.499 476.297 216.473C456.911 213.013 441.833 205.774 432.052 200.041ZM439.832 142.518C461.172 121.508 488.221 122.979 492.341 123.274C488.727 133.279 479.523 154.407 457.959 171.768C443.493 183.421 429.015 188.906 419.681 191.602C419.634 187.211 419.799 162.258 439.832 142.518ZM411.771 222.923C435.948 228.008 450.779 242.227 456.005 247.748C444.011 249.878 424.624 251.773 401.589 247.112C381.768 243.098 366.548 235.706 356.72 229.927C363.217 226.725 384.616 217.215 411.771 222.923ZM359.356 179.631C377.071 157.75 402.484 156.29 406.357 156.125C404.038 165.848 397.67 186.552 379.367 205.032C367.078 217.45 354.13 224.089 345.703 227.585C345.196 223.488 342.713 200.171 359.356 179.631ZM280.27 227.808C288.839 194.98 316.205 180.326 320.678 178.03C322.891 186.258 328.282 210.553 317.477 238.166C308.296 261.66 292.299 275.032 285.19 280.305C282.365 274.208 273.596 253.327 280.27 227.808ZM299.574 313.298C328.941 305.247 352.377 319.219 356.249 321.608C348.304 329.035 333.979 340.465 313.074 347.857C287.05 357.061 264.391 355.201 253.056 353.483C254.716 349.74 267.605 322.067 299.574 313.298ZM212.295 292.794C222.347 261.496 242.757 242.945 251.914 235.565C265.415 269.017 262.72 291.134 257.564 305.294C253.574 316.241 248.371 321.667 238.449 341.759C229.444 359.992 223.759 375.671 220.369 386.088C216.132 377.73 197.522 338.734 212.295 292.794ZM459.842 737.84C459.465 746.292 458.206 759.027 453.969 774.812C439.797 776.46 425.46 777.284 411.006 777.284C361.534 777.284 313.569 767.608 268.44 748.516C235.659 734.65 205.385 716.276 178.066 693.724C172.204 676.48 166.907 653.763 167.343 628.809C167.343 628.809 173.322 629.28 181.997 628.739H182.009C198.099 627.726 223.477 623.206 237.284 605.633C238.037 604.679 238.743 603.691 239.426 602.655C243.969 595.734 251.585 591.52 259.86 591.426C260.33 591.426 260.813 591.414 261.296 591.402C279.163 590.872 307.942 583.339 327.176 544.861C328.6 592.367 347.162 619.722 355.743 630.563C371.81 650.879 393.115 664.121 418.268 679.752C433.335 689.122 446.459 695.913 455.722 700.386C456.958 704.706 458.347 710.544 459.218 717.524C459.536 720.196 460.313 727.306 459.842 737.84ZM670.006 670.006C636.354 703.658 597.182 730.072 553.56 748.516C533.055 757.191 511.962 763.924 490.41 768.679C489.787 763.653 489.763 759.286 489.998 755.614C490.775 743.667 494.271 738.888 493.176 725.151C492.329 714.487 489.763 711.604 488.727 701.022C487.562 688.992 489.551 679.034 491.27 672.772C499.262 669.406 512.045 668.417 528.712 666.899C555.996 664.427 567.92 668.947 585.54 660.707C601.595 653.21 608.858 638.532 610.612 634.683C618.274 617.886 614.661 602.043 612.836 594.051C610.129 582.209 605.127 573.393 601.572 568.108C602.208 566.719 603.361 564.624 605.374 562.635C608.893 559.186 611.918 559.139 613.955 555.973C615.296 553.866 615.332 551.771 615.379 549.299C615.508 542.342 612.483 536.728 610.376 533.585C611.612 533.126 619.428 530.065 621.088 523.121C621.77 520.249 621.194 517.683 620.852 516.212C619.51 510.338 616.273 508.725 614.896 504.782C613.872 501.804 613.79 497.155 618.239 489.951C620.005 490.905 634.918 498.697 649.337 491.529C651.209 490.61 659.672 486.397 662.991 477.251C664.804 472.237 664.627 466.975 661.084 455.664C654.81 435.618 648.925 431.557 640.768 410.594C636.225 398.894 637.143 397.811 632.835 389.007C627.326 377.742 623.312 374.388 617.921 364.571C614.614 358.556 610.306 349.234 607.445 336.321C609.552 333.661 612.413 329.412 614.425 323.621C615.167 321.479 617.827 313.298 616.332 302.669C615.073 293.724 611.471 287.426 610.612 285.849C605.527 276.527 598.782 254.504 590.625 201.419C592.979 195.674 595.781 187.141 596.805 176.5C596.805 176.5 597.252 171.863 596.911 164.859C599.029 163.258 601.16 161.587 603.314 159.845C611.118 153.489 617.862 147.121 623.63 141.118C615.038 135.28 604.244 128.947 591.249 123.332C588.165 122.002 585.14 120.79 582.198 119.707C578.725 98.3316 574.017 92.0814 547.639 71.0356C549.617 71.8242 551.594 72.6364 553.56 73.4721C597.182 91.9166 636.354 118.342 670.006 151.994C703.658 185.646 730.083 224.819 748.528 268.44C767.608 313.569 777.295 361.534 777.295 410.994C777.295 460.454 767.608 508.431 748.528 553.56C730.083 597.17 703.658 636.342 670.006 670.006Z" fill="currentColor"/>
</svg>
