<svg width="1000" height="1000" viewBox="0 0 1000 1000" fill="none" xmlns="http://www.w3.org/2000/svg">
<g clip-path="url(#clip0_4083_5)">
<rect width="1000" height="1000" fill="url(#paint0_linear_4083_5)"/>
<circle cx="500" cy="500" r="455" fill="#F7EFE2"/>
<path d="M634.728 353.071C618.816 358.208 601.382 361.523 589.189 372.926C582.142 379.509 577.551 388.208 571.991 396.084C558.724 414.893 539.755 429.258 527.149 448.514C523.985 453.345 521.2 458.588 520.314 464.301C519.193 471.601 521.259 478.972 523.419 486.037C527.078 498.016 531.056 509.889 535.341 521.656C518.556 525.594 501.523 529.568 484.278 528.933C467.033 528.298 449.28 522.514 437.759 509.724C422.745 493.043 421.234 468.498 422.249 446.127C422.804 433.808 457.849 446.268 462.028 434.666C470.668 410.673 482.625 410.979 502.326 394.721C540.64 363.122 548.797 316.441 623.278 310.752C631.305 310.14 618.698 270.419 626.725 271.006C644.112 272.276 677.894 286.183 674.801 307.213C671.166 331.947 658.571 345.36 634.704 353.071H634.728Z" fill="#6B2C14" fill-opacity="0.25"/>
<path d="M418.397 734.686C423.446 744.75 427.619 755.321 433.909 764.652C450.45 789.184 480.102 803.003 494.893 828.622C499.965 837.409 503.04 847.201 507.521 856.319C512.002 865.437 518.327 874.213 527.561 878.453C530.186 879.658 533.165 880.473 535.944 879.694C539.159 878.796 541.418 876.02 543.463 873.386C546.809 869.087 550.155 864.788 553.501 860.488C557.415 855.457 561.399 850.331 563.681 844.366C566.282 837.586 566.53 830.157 566.743 822.893C567.382 801.456 567.689 778.695 556.693 760.27C545.118 740.864 523.387 730.245 502.685 721.163C481.982 712.08 460.015 702.631 446.749 684.323C440.435 675.606 436.546 665.413 432.715 655.35C429.546 647.023 426.378 638.696 423.221 630.369C421.956 627.038 420.265 623.294 416.848 622.267C413.881 621.369 410.783 622.904 408.063 624.393C396.796 630.57 385.528 636.735 374.261 642.913C367.628 646.551 352.057 654.511 356.928 663.89C358.749 667.398 365.985 670.823 369.118 673.374C373.315 676.788 377.359 680.39 381.248 684.158C396.323 698.768 408.962 715.895 418.373 734.651L418.397 734.686Z" fill="#6B2C14" fill-opacity="0.25"/>
<path d="M348.012 519.197C347.846 530.485 352.745 541.242 358.463 550.997C364.822 561.825 372.9 572.452 384.502 577.359C385.344 577.712 386.222 578.043 387.124 577.995C388.405 577.937 389.544 577.134 390.398 576.179C394.668 571.402 392.806 563.948 390.315 558.05C387.824 552.153 384.941 545.406 387.812 539.685C391.027 533.269 400.007 531.523 403.53 525.272C406.496 520.011 404.574 513.3 401.312 508.216C394.894 498.226 380.658 489.332 368.238 491.267C355.818 493.201 348.166 507.815 348 519.185L348.012 519.197Z" fill="#6B2C14" fill-opacity="0.25"/>
<path d="M500.006 89C273.01 89 89 273.01 89 499.994C89 726.978 273.01 911 500.006 911C727.002 911 911 726.99 911 499.994C911 272.998 726.99 89 500.006 89ZM623.173 225.115C654.142 216.37 681.297 231.448 685.393 233.814C677.377 241.288 658.815 256.296 629.2 261.545C609.32 265.053 592.087 262.828 581.341 260.592C583.177 256.484 594.088 233.331 623.173 225.115ZM636.451 396.436C632.166 396.189 625.222 395.695 617.088 398.661C607.73 402.063 602.081 408.148 599.632 410.714C589.215 421.684 571.995 437.516 548.524 458.326C556.799 459.08 565.262 459.727 573.925 460.233C578.092 460.48 582.224 460.692 586.296 460.869C590.11 464.541 595.972 469.379 604.082 473.404C612.909 477.795 620.972 479.513 626.457 480.231C627.011 486.858 627.034 495.557 625.104 505.467C623.986 511.2 622.432 516.226 620.819 520.463C625.021 519.039 635.662 514.778 643.431 503.796C655.566 486.658 650.634 467.331 649.857 464.518C653.165 462.964 658.791 459.786 663.912 453.806C668.655 448.262 670.915 442.683 671.998 439.281C677.507 455.607 684.028 466.86 689.148 474.275C690.925 476.865 691.408 477.348 692.95 479.76C702.107 494.05 704.461 507.28 705.568 512.365C707.4 520.827 711.345 532.406 720.491 546.865C722.642 550.266 720.329 554.831 716.305 554.808C699.611 554.714 686.886 553.471 677.483 552.126C671.48 551.267 662.793 549.784 654.625 554.504C648.574 558 645.243 563.508 643.431 567.357C647.186 566.333 652.059 565.462 657.72 565.698C672.928 566.31 683.604 574.349 687.712 577.833C686.429 580.07 684.345 584.389 683.91 590.216C683.498 595.654 684.71 599.974 685.569 602.351C680.579 603.411 675.117 604.929 669.385 607.118C651.752 613.839 639.134 623.962 631.06 631.872C635.827 630.024 642.018 628.129 649.387 627.117C659.686 625.692 668.455 626.505 674.623 627.587C679.461 628.152 683.098 631.166 683.663 634.732C683.992 636.745 683.262 638.487 682.709 639.488C678.907 641.547 673.893 644.773 668.902 649.728C662.699 655.908 659.062 662.252 657.002 666.631C658.368 666.325 665.924 664.771 672.716 669.491C680.673 675.011 680.755 685.393 680.814 689.724C680.932 699.624 676.447 706.78 674.54 709.723C671.892 713.819 664.747 722.765 647.244 728.45C616.7 738.361 567.098 734.147 512.659 710.676C489 700.471 476.406 696.493 466.318 686.229C437.669 657.085 439.952 613.828 441.329 599.503C438.399 598.526 433.902 597.572 429.418 599.256C424.321 601.186 422.908 605.188 419.66 607.825C411.362 614.593 395.883 608.59 390.857 606.636C384.666 604.235 375.591 599.491 352.532 571.406C338.902 554.81 332.086 546.512 329.674 539.743C328.237 535.718 318.562 507.257 335.394 483.798C348.848 465.035 375.92 452.747 400.85 462.611C411.938 467.001 421.049 475.146 427.111 485.457C429.818 490.048 431.925 495.074 433.325 500.383C439.54 501.972 446.968 503.266 455.372 503.561C474.346 504.232 489.401 499.512 498.217 495.945C495.015 492.802 489.765 486.858 486.317 477.854C483.409 470.25 482.939 463.517 482.986 459.28C488.4 458.467 497.452 456.313 506.315 449.757C524.877 436.033 527.349 414.304 527.737 410.243C533.364 406.853 540.567 401.462 546.782 393.105C560.142 375.143 560.577 354.78 559.589 343.739C559.318 340.655 558.93 338.301 558.682 336.924C560.507 337.336 563.037 337.831 566.121 338.207C574.89 339.29 588.144 339.372 602.493 333.593C614.451 328.767 622.585 321.705 627.246 316.926C629.53 317.832 634.203 319.445 640.335 319.81C643.643 319.998 647.374 319.833 651.376 318.986C654.86 318.256 657.956 317.138 660.663 315.831C661.557 322.246 662.664 328.92 664.065 335.806C668.773 359.018 675.529 379.122 682.474 395.801C661.71 397.249 646.844 397.025 636.451 396.436ZM652.8 431.183C648.327 436.398 643.866 439.764 640.735 441.824C636.898 444.331 625.598 451.523 610.426 450.864C606.636 450.699 602.764 448.248 600.991 445.233C598.361 440.759 599.013 438.213 601.238 436.316C605.133 432.995 610.615 432.355 615.727 432.102C629.022 431.445 645.118 431.955 652.8 431.183ZM438.281 380.84C416.07 378.828 400.485 368.905 393.647 363.926C398.037 359.995 415.587 345.211 442.271 344.905C472.427 344.552 491.766 362.961 495.357 366.516C488.694 370.835 467.342 383.477 438.281 380.84ZM521.052 289.041C527.208 285.392 547.536 274.434 574.102 279.413C597.761 283.827 612.768 298.328 618.065 303.978C606.53 306.709 587.826 309.499 565.297 305.473C545.911 302.013 530.833 294.774 521.052 289.041ZM528.832 231.518C550.172 210.508 577.221 211.979 581.341 212.274C577.727 222.279 568.523 243.407 546.959 260.768C532.493 272.421 518.015 277.906 508.681 280.602C508.634 276.211 508.799 251.258 528.832 231.518ZM500.771 311.923C524.948 317.008 539.779 331.227 545.005 336.748C533.011 338.878 513.624 340.773 490.589 336.112C470.768 332.098 455.548 324.706 445.72 318.927C452.217 315.725 473.616 306.215 500.771 311.923ZM448.356 268.631C466.071 246.75 491.484 245.29 495.357 245.125C493.038 254.848 486.67 275.552 468.367 294.032C456.078 306.45 443.13 313.089 434.703 316.585C434.196 312.488 431.713 289.171 448.356 268.631ZM369.27 316.808C377.839 283.98 405.205 269.326 409.678 267.03C411.891 275.258 417.282 299.553 406.477 327.166C397.296 350.66 381.299 364.032 374.19 369.305C371.365 363.208 362.596 342.327 369.27 316.808ZM388.574 402.298C417.941 394.247 441.377 408.219 445.249 410.608C437.304 418.035 422.979 429.465 402.074 436.857C376.05 446.061 353.391 444.201 342.056 442.483C343.716 438.74 356.605 411.067 388.574 402.298ZM301.295 381.794C311.347 350.496 331.757 331.945 340.914 324.565C354.415 358.017 351.72 380.134 346.564 394.294C342.574 405.241 337.371 410.667 327.449 430.759C318.444 448.992 312.759 464.671 309.369 475.088C305.132 466.73 286.522 427.734 301.295 381.794ZM548.842 826.84C548.465 835.292 547.206 848.027 542.969 863.812C528.797 865.46 514.46 866.283 500.006 866.283C450.534 866.283 402.569 856.608 357.44 837.516C324.659 823.65 294.385 805.276 267.066 782.724C261.204 765.48 255.907 742.763 256.343 717.809C256.343 717.809 262.322 718.28 270.997 717.739H271.009C287.099 716.726 312.477 712.206 326.284 694.633C327.037 693.679 327.743 692.691 328.426 691.655C332.969 684.734 340.585 680.52 348.86 680.426C349.33 680.426 349.813 680.414 350.296 680.402C368.163 679.872 396.942 672.339 416.176 633.861C417.6 681.367 436.162 708.722 444.743 719.563C460.81 739.879 482.115 753.121 507.268 768.752C522.335 778.122 535.459 784.913 544.722 789.386C545.958 793.706 547.347 799.544 548.218 806.524C548.536 809.196 549.313 816.306 548.842 826.84ZM759.006 759.006C725.354 792.658 686.182 819.072 642.56 837.516C622.055 846.191 600.962 852.924 579.41 857.679C578.787 852.653 578.763 848.286 578.998 844.614C579.775 832.667 583.271 827.888 582.176 814.152C581.329 803.487 578.763 800.604 577.727 790.022C576.562 777.992 578.551 768.034 580.27 761.772C588.262 758.406 601.045 757.417 617.712 755.899C644.996 753.427 656.92 757.947 674.54 749.707C690.595 742.21 697.858 727.532 699.612 723.683C707.274 706.886 703.661 691.043 701.836 683.051C699.129 671.209 694.127 662.393 690.572 657.108C691.208 655.719 692.361 653.624 694.374 651.635C697.893 648.186 700.918 648.139 702.955 644.973C704.296 642.866 704.332 640.771 704.379 638.299C704.508 631.342 701.483 625.728 699.376 622.585C700.612 622.126 708.428 619.066 710.088 612.121C710.77 609.249 710.194 606.683 709.852 605.212C708.51 599.338 705.273 597.725 703.896 593.782C702.872 590.804 702.79 586.155 707.239 578.951C709.005 579.905 723.918 587.697 738.337 580.529C740.209 579.61 748.672 575.397 751.991 566.251C753.804 561.237 753.627 555.975 750.084 544.664C743.81 524.618 737.925 520.557 729.768 499.594C725.225 487.894 726.143 486.811 721.835 478.007C716.326 466.742 712.312 463.388 706.921 453.571C703.614 447.556 699.306 438.234 696.445 425.321C698.552 422.661 701.413 418.412 703.425 412.621C704.167 410.479 706.827 402.298 705.332 391.669C704.073 382.724 700.471 376.426 699.612 374.849C694.527 365.527 687.782 343.504 679.625 290.419C681.979 284.674 684.781 276.141 685.805 265.5C685.805 265.5 686.252 260.863 685.911 253.859C688.029 252.258 690.16 250.587 692.314 248.845C700.118 242.489 706.862 236.121 712.63 230.118C704.038 224.28 693.244 217.947 680.249 212.332C677.165 211.002 674.14 209.79 671.198 208.707C667.725 187.332 663.017 181.081 636.639 160.036C638.617 160.824 640.594 161.636 642.56 162.472C686.182 180.917 725.354 207.342 759.006 240.994C792.658 274.646 819.083 313.819 837.528 357.44C856.608 402.569 866.295 450.534 866.295 499.994C866.295 549.454 856.608 597.431 837.528 642.56C819.083 686.17 792.658 725.342 759.006 759.006Z" fill="url(#paint1_linear_4083_5)"/>
<path d="M500.006 89C273.01 89 88.9996 273.01 88.9996 499.994C88.9996 726.979 273.01 911 500.006 911C727.002 911 911 726.99 911 499.994C911 272.998 726.99 89 500.006 89ZM623.173 225.115C654.142 216.37 681.297 231.448 685.393 233.814C677.377 241.288 658.815 256.295 629.2 261.545C609.32 265.053 592.087 262.828 581.341 260.592C583.177 256.484 594.088 233.331 623.173 225.115ZM636.451 396.437C632.166 396.189 625.222 395.695 617.088 398.661C607.73 402.063 602.08 408.148 599.632 410.714C589.215 421.684 571.995 437.516 548.524 458.326C556.799 459.079 565.262 459.727 573.925 460.233C578.092 460.48 582.223 460.692 586.296 460.869C590.11 464.541 595.971 469.379 604.081 473.405C612.909 477.795 620.972 479.513 626.457 480.231C627.011 486.858 627.034 495.557 625.104 505.468C623.985 511.2 622.432 516.226 620.819 520.463C625.021 519.039 635.662 514.778 643.431 503.796C655.566 486.658 650.634 467.331 649.857 464.518C653.165 462.964 658.791 459.786 663.912 453.806C668.655 448.262 670.915 442.683 671.998 439.281C677.507 455.607 684.028 466.86 689.148 474.276C690.925 476.865 691.408 477.348 692.95 479.761C702.107 494.05 704.461 507.28 705.568 512.365C707.4 520.827 711.346 532.407 720.491 546.865C722.642 550.266 720.329 554.831 716.305 554.809C699.611 554.715 686.886 553.471 677.483 552.126C671.48 551.267 662.793 549.784 654.624 554.504C648.574 558 645.243 563.509 643.431 567.358C647.185 566.334 652.058 565.463 657.72 565.698C672.928 566.31 683.604 574.349 687.712 577.833C686.429 580.07 684.345 584.39 683.91 590.216C683.498 595.654 684.71 599.974 685.57 602.352C680.579 603.411 675.117 604.929 669.385 607.119C651.753 613.84 639.134 623.962 631.06 631.872C635.827 630.024 642.018 628.129 649.387 627.117C659.686 625.693 668.455 626.505 674.623 627.588C679.461 628.153 683.098 631.166 683.663 634.733C683.992 636.745 683.262 638.488 682.709 639.488C678.907 641.548 673.893 644.773 668.902 649.728C662.699 655.908 659.062 662.252 657.002 666.631C658.367 666.325 665.925 664.771 672.716 669.491C680.673 675.012 680.755 685.393 680.814 689.725C680.932 699.624 676.447 706.78 674.541 709.723C671.892 713.819 664.747 722.765 647.244 728.45C616.7 738.361 567.098 734.147 512.659 710.677C489 700.471 476.406 696.493 466.318 686.229C437.669 657.085 439.952 613.828 441.329 599.503C438.398 598.526 433.902 597.573 429.417 599.256C424.321 601.186 422.909 605.188 419.66 607.825C411.362 614.593 395.883 608.59 390.857 606.636C384.666 604.235 375.59 599.491 352.532 571.407C338.901 554.81 332.086 546.512 329.673 539.744C328.237 535.718 318.562 507.257 335.394 483.798C348.848 465.036 375.92 452.747 400.85 462.611C411.938 467.001 421.049 475.146 427.111 485.458C429.818 490.048 431.925 495.074 433.325 500.383C439.54 501.972 446.967 503.267 455.372 503.561C474.346 504.232 489.401 499.512 498.217 495.945C495.015 492.803 489.765 486.858 486.317 477.854C483.409 470.25 482.939 463.517 482.986 459.28C488.4 458.467 497.452 456.314 506.315 449.757C524.877 436.033 527.349 414.304 527.737 410.243C533.364 406.853 540.567 401.462 546.782 393.105C560.142 375.143 560.577 354.78 559.589 343.74C559.318 340.656 558.929 338.301 558.682 336.924C560.507 337.336 563.037 337.831 566.121 338.207C574.89 339.29 588.144 339.373 602.492 333.593C614.451 328.767 622.585 321.705 627.246 316.926C629.529 317.832 634.202 319.445 640.335 319.81C643.642 319.998 647.374 319.833 651.376 318.986C654.86 318.256 657.955 317.138 660.663 315.831C661.557 322.246 662.664 328.92 664.064 335.806C668.773 359.018 675.529 379.122 682.474 395.801C661.711 397.249 646.844 397.025 636.451 396.437ZM652.8 431.183C648.327 436.398 643.866 439.764 640.735 441.824C636.898 444.331 625.598 451.523 610.426 450.864C606.636 450.699 602.764 448.248 600.991 445.234C598.361 440.759 599.013 438.213 601.238 436.316C605.132 432.995 610.615 432.355 615.727 432.102C629.022 431.445 645.118 431.955 652.8 431.183ZM438.281 380.84C416.07 378.828 400.485 368.905 393.647 363.926C398.037 359.995 415.587 345.211 442.271 344.905C472.428 344.552 491.766 362.961 495.356 366.516C488.694 370.835 467.342 383.477 438.281 380.84ZM521.052 289.042C527.208 285.393 547.535 274.434 574.102 279.413C597.761 283.827 612.768 298.328 618.065 303.978C606.53 306.709 587.826 309.499 565.297 305.473C545.911 302.013 530.833 294.774 521.052 289.042ZM528.832 231.518C550.172 210.508 577.221 211.979 581.341 212.273C577.727 222.278 568.523 243.407 546.959 260.768C532.493 272.421 518.015 277.906 508.681 280.602C508.634 276.211 508.799 251.258 528.832 231.518ZM500.771 311.923C524.948 317.008 539.779 331.227 545.005 336.748C533.011 338.878 513.624 340.773 490.589 336.112C470.768 332.098 455.548 324.706 445.72 318.927C452.217 315.725 473.616 306.215 500.771 311.923ZM448.356 268.631C466.071 246.75 491.484 245.29 495.356 245.125C493.038 254.848 486.67 275.552 468.366 294.032C456.078 306.45 443.13 313.089 434.703 316.585C434.197 312.489 431.713 289.171 448.356 268.631ZM369.27 316.808C377.839 283.98 405.205 269.326 409.678 267.03C411.891 275.258 417.282 299.553 406.477 327.167C397.296 350.661 381.299 364.032 374.19 369.305C371.365 363.208 362.596 342.327 369.27 316.808ZM388.573 402.298C417.941 394.247 441.376 408.219 445.249 410.608C437.304 418.035 422.979 429.465 402.074 436.857C376.05 446.061 353.391 444.201 342.056 442.483C343.716 438.74 356.605 411.067 388.573 402.298ZM301.294 381.794C311.346 350.496 331.757 331.945 340.914 324.565C354.415 358.017 351.72 380.134 346.564 394.294C342.574 405.241 337.371 410.667 327.449 430.76C318.444 448.992 312.759 464.671 309.369 475.088C305.132 466.731 286.522 427.734 301.294 381.794ZM548.842 826.841C548.466 835.292 547.206 848.028 542.968 863.812C528.797 865.46 514.46 866.284 500.006 866.284C450.534 866.284 402.569 856.609 357.44 837.517C324.659 823.651 294.385 805.277 267.065 782.724C261.204 765.48 255.907 742.763 256.342 717.81C256.342 717.81 262.322 718.28 270.997 717.739H271.009C287.099 716.727 312.477 712.207 326.284 694.633C327.037 693.68 327.743 692.691 328.426 691.655C332.969 684.734 340.585 680.52 348.859 680.426C349.33 680.426 349.813 680.414 350.296 680.403C368.163 679.873 396.943 672.34 416.176 633.862C417.6 681.368 436.162 708.723 444.743 719.563C460.81 739.88 482.114 753.121 507.268 768.753C522.335 778.122 535.459 784.914 544.722 789.387C545.958 793.707 547.347 799.545 548.218 806.525C548.536 809.197 549.313 816.306 548.842 826.841ZM759.006 759.007C725.354 792.659 686.182 819.072 642.56 837.517C622.055 846.192 600.962 852.924 579.41 857.68C578.786 852.654 578.763 848.287 578.998 844.614C579.775 832.667 583.271 827.888 582.176 814.152C581.329 803.488 578.763 800.604 577.727 790.022C576.562 777.993 578.551 768.035 580.27 761.773C588.262 758.406 601.045 757.418 617.712 755.899C644.996 753.427 656.92 757.947 674.541 749.708C690.596 742.21 697.858 727.532 699.612 723.683C707.274 706.886 703.661 691.043 701.837 683.051C699.129 671.21 694.127 662.394 690.572 657.109C691.208 655.72 692.361 653.624 694.374 651.635C697.893 648.186 700.918 648.139 702.955 644.973C704.297 642.866 704.332 640.771 704.379 638.299C704.509 631.343 701.483 625.728 699.376 622.585C700.612 622.126 708.428 619.066 710.088 612.121C710.77 609.249 710.194 606.683 709.852 605.212C708.511 599.338 705.274 597.726 703.896 593.782C702.872 590.805 702.79 586.155 707.239 578.952C709.005 579.905 723.918 587.697 738.337 580.529C740.209 579.611 748.672 575.397 751.991 566.251C753.804 561.237 753.627 555.975 750.084 544.664C743.811 524.618 737.925 520.557 729.768 499.594C725.225 487.894 726.143 486.811 721.835 478.007C716.326 466.742 712.312 463.388 706.922 453.571C703.614 447.556 699.306 438.234 696.446 425.322C698.552 422.661 701.413 418.412 703.426 412.621C704.167 410.479 706.827 402.298 705.332 391.669C704.073 382.724 700.471 376.426 699.612 374.849C694.527 365.527 687.782 343.504 679.625 290.418C681.979 284.674 684.781 276.141 685.805 265.5C685.805 265.5 686.252 260.862 685.911 253.859C688.03 252.258 690.16 250.587 692.314 248.845C700.118 242.489 706.863 236.121 712.63 230.118C704.038 224.279 693.244 217.947 680.249 212.332C677.165 211.002 674.14 209.79 671.198 208.707C667.725 187.332 663.017 181.081 636.639 160.035C638.617 160.824 640.594 161.636 642.56 162.472C686.182 180.916 725.354 207.341 759.006 240.994C792.659 274.646 819.084 313.819 837.528 357.44C856.608 402.569 866.296 450.534 866.296 499.994C866.296 549.454 856.608 597.432 837.528 642.56C819.084 686.17 792.659 725.343 759.006 759.007Z" fill="url(#paint2_linear_4083_5)"/>
<path d="M429 579.883C424.603 581.896 417.942 584.155 409.772 583.992C407.567 583.945 381.737 583.242 371.622 562.525C367.295 553.652 363.758 537.897 373.048 526.86C378.66 520.188 386.429 518.198 389.907 517.542C389.117 516.056 384.696 507.956 375.123 505.393C366.21 503.005 356.366 506.352 350 513.914C350.047 511.643 350.507 500.465 359.538 491.979C371.398 480.847 387.242 484.488 388.787 484.874C399.197 487.461 407.485 495.022 411.045 504.292C416.032 517.297 409.96 529.212 407.072 534.901C404.549 539.864 401.566 543.516 399.279 545.95C398.265 551.112 399.869 553.945 400.552 554.952C402.651 558.053 406.27 559.048 412.318 560.628C418.614 562.279 419.675 561.448 422.009 562.677C425.098 564.327 428.387 568.529 429 579.883Z" fill="#6B2C14" fill-opacity="0.25"/>
</g>
<defs>
<linearGradient id="paint0_linear_4083_5" x1="1000" y1="0" x2="0.000119209" y2="1000" gradientUnits="userSpaceOnUse">
<stop stop-color="#9E4426" stop-opacity="0"/>
<stop offset="1" stop-color="#C45F38" stop-opacity="0"/>
</linearGradient>
<linearGradient id="paint1_linear_4083_5" x1="500" y1="89" x2="500" y2="911" gradientUnits="userSpaceOnUse">
<stop stop-color="#569AFF"/>
<stop offset="1" stop-color="#5073ED"/>
</linearGradient>
<linearGradient id="paint2_linear_4083_5" x1="911" y1="-887" x2="-867.375" y2="646.073" gradientUnits="userSpaceOnUse">
<stop stop-color="#9E4426"/>
<stop offset="1" stop-color="#C45F38"/>
</linearGradient>
<clipPath id="clip0_4083_5">
<rect width="1000" height="1000" fill="white"/>
</clipPath>
</defs>
</svg>
